<svg xmlns="http://www.w3.org/2000/svg" version="1.1" xmlns:xlink="http://www.w3.org/1999/xlink" xmlns:svgjs="http://svgjs.dev/svgjs" width="1500" height="1500" viewBox="0 0 1500 1500"><rect width="1500" height="1500" fill="#ffffff"></rect><g transform="matrix(0.6666666666666666,0,0,0.6666666666666666,249.39393939393938,438.5856950067477)"><svg viewBox="0 0 396 247" data-background-color="#0a192f" preserveAspectRatio="xMidYMid meet" height="935" width="1500" xmlns="http://www.w3.org/2000/svg" xmlns:xlink="http://www.w3.org/1999/xlink"><g id="tight-bounds" transform="matrix(1,0,0,1,0.2400000000000091,-0.09999999999999432)"><svg viewBox="0 0 395.52 247.2" height="247.2" width="395.52"><g><svg></svg></g><g><svg viewBox="0 0 395.52 247.2" height="247.2" width="395.52"><g transform="matrix(1,0,0,1,136.2278,47.215199999999996)"><svg viewBox="0 0 123.06439999999999 152.7696" height="152.7696" width="123.06439999999999"><g><svg viewBox="0 0 123.06439999999999 152.7696" height="152.7696" width="123.06439999999999"><g><svg viewBox="0 0 123.06439999999999 152.7696" height="152.7696" width="123.06439999999999"><g><svg viewBox="0 0 123.06439999999999 152.7696" height="152.7696" width="123.06439999999999"><g id="textblocktransform"><svg viewBox="0 0 123.06439999999999 152.7696" height="152.7696" width="123.06439999999999" id="textblock"><g><svg viewBox="0 0 123.06439999999999 152.7696" height="152.7696" width="123.06439999999999"><g transform="matrix(1,0,0,1,0,0)"><svg width="123.06439999999999" viewBox="0.5 -35 29 36" height="152.7696" data-palette-color="#5cebcb"><path d="M13 1L13 1Q11.2 1 9.43 0.7 7.65 0.4 6-0.15 4.35-0.7 2.95-1.43 1.55-2.15 0.5-3L0.5-3 2.75-6Q5-4.3 7.33-3.53 9.65-2.75 12.5-2.75L12.5-2.75Q14.55-2.75 16.32-3.38 18.1-4 19.43-5.4 20.75-6.8 21.5-8.97 22.25-11.15 22.25-14.25L22.25-14.25 22.25-31.25 10.5-31.25 10.5-35 29.5-35 29.5-14.25Q29.5-10.4 28.33-7.55 27.15-4.7 25-2.8 22.85-0.9 19.8 0.05 16.75 1 13 1Z" opacity="1" transform="matrix(1,0,0,1,0,0)" fill="#000000" class="wordmark-text-0" data-fill-palette-color="primary" id="text-0"></path></svg></g></svg></g></svg></g></svg></g></svg></g></svg></g></svg></g><path d="M318.529 41.215L318.529 0 71.329 0 71.329 247.2 318.529 247.2 318.529 205.985 304.752 205.985 304.752 233.423 85.106 233.423 85.106 13.777 304.752 13.777 304.752 41.215Z" fill="#000000" stroke="transparent" data-fill-palette-color="tertiary"></path></svg></g><defs></defs></svg><rect width="395.52" height="247.2" fill="none" stroke="none" visibility="hidden"></rect></g></svg></g></svg>